<svg
   width="400"
   height="600"
   viewBox="0 0 400 600"
   fill="none"
   xmlns="http://www.w3.org/2000/svg">
  <path
     d="M 0,500 C 0,444.772 44.772,400 99.999997,400 H 200 V 500 C 200,555.228 155.228,600 99.999997,600 44.772,600 0,555.228 0,500 Z"
     fill="#24cb71"
     id="path2" />
  <path
     d="M 200,0 V 200 H 300 C 355.228,200 400,155.228 400,100 400,44.772 355.228,0 300,0 Z"
     fill="#ff7237"
     id="path4" />
  <circle
     cx="299.16702"
     cy="300"
     r="100"
     fill="#00b6ff"
     id="circle6" />
  <path
     d="m 0,100 c 0,55.228 44.772,100 99.999997,100 H 200 V 0 H 99.999997 C 44.772,0 0,44.772 0,100 Z"
     fill="#ff3737"
     id="path8" />
  <path
     d="m 0,300 c 0,55.228 44.772,100 99.999997,100 H 200 V 200 H 99.999997 C 44.772,200 0,244.772 0,300 Z"
     fill="#874fff"
     id="path10" />
</svg>
